<svg id="svg" version="1.1" xmlns="http://www.w3.org/2000/svg" xmlns:xlink="http://www.w3.org/1999/xlink" width="400" height="109.74729241877256" viewBox="0, 0, 400,109.74729241877256"><g id="svgg"><path id="path0" d="M345.333 64.250 L 345.333 87.500 350.653 87.500 C 353.579 87.500,356.091 87.454,356.236 87.399 C 356.533 87.285,356.609 86.253,356.333 86.083 C 356.228 86.018,356.167 84.026,356.167 80.655 L 356.167 75.330 356.667 74.807 C 356.942 74.519,357.167 74.191,357.167 74.076 C 357.167 73.962,357.279 73.826,357.417 73.773 C 357.569 73.715,357.667 73.773,357.667 73.922 C 357.667 74.057,357.742 74.167,357.833 74.167 C 357.925 74.167,358.000 74.317,358.000 74.500 C 358.000 74.683,358.075 74.833,358.167 74.833 C 358.258 74.833,358.333 74.932,358.333 75.052 C 358.333 75.172,358.483 75.431,358.667 75.628 C 358.850 75.825,359.000 76.089,359.000 76.214 C 359.000 76.339,359.188 76.618,359.417 76.833 C 359.646 77.049,359.833 77.324,359.833 77.446 C 359.833 77.567,359.894 77.667,359.969 77.667 C 360.043 77.667,360.207 77.929,360.333 78.250 C 360.459 78.571,360.604 78.834,360.656 78.835 C 360.708 78.836,360.892 79.134,361.066 79.496 C 361.239 79.859,361.502 80.289,361.649 80.453 C 361.796 80.616,362.023 80.956,362.153 81.208 C 362.283 81.460,362.452 81.667,362.528 81.667 C 362.604 81.667,362.667 81.817,362.667 82.000 C 362.667 82.183,362.734 82.333,362.815 82.333 C 362.897 82.333,363.007 82.507,363.061 82.719 C 363.146 83.059,363.307 83.300,363.997 84.118 C 364.090 84.229,364.167 84.397,364.167 84.493 C 364.167 84.589,364.224 84.667,364.294 84.667 C 364.364 84.667,364.547 84.957,364.701 85.311 C 364.854 85.666,365.078 86.062,365.198 86.192 C 365.318 86.321,365.543 86.650,365.698 86.922 L 365.979 87.417 372.406 87.460 L 378.833 87.504 378.833 87.101 C 378.833 86.681,378.190 85.333,377.989 85.333 C 377.926 85.333,377.781 85.108,377.667 84.833 C 377.553 84.558,377.397 84.333,377.321 84.333 C 377.245 84.333,377.058 84.071,376.905 83.750 C 376.753 83.429,376.562 83.167,376.481 83.167 C 376.400 83.167,376.333 83.023,376.333 82.847 C 376.333 82.672,376.270 82.503,376.192 82.472 C 376.114 82.442,375.850 82.098,375.606 81.708 C 375.362 81.319,375.088 81.000,374.998 81.000 C 374.907 81.000,374.833 80.850,374.833 80.667 C 374.833 80.483,374.758 80.333,374.667 80.333 C 374.575 80.333,374.500 80.218,374.500 80.076 C 374.500 79.935,374.350 79.658,374.167 79.462 C 373.983 79.265,373.833 79.005,373.833 78.885 C 373.833 78.765,373.770 78.667,373.693 78.667 C 373.616 78.667,373.411 78.404,373.238 78.083 C 373.066 77.762,372.866 77.500,372.795 77.500 C 372.725 77.500,372.667 77.387,372.667 77.250 C 372.667 77.112,372.592 77.000,372.500 77.000 C 372.408 77.000,372.333 76.902,372.333 76.781 C 372.333 76.661,372.183 76.402,372.000 76.205 C 371.817 76.008,371.667 75.805,371.667 75.753 C 371.667 75.586,370.763 74.258,370.461 73.980 C 370.299 73.832,370.167 73.588,370.167 73.439 C 370.167 73.289,370.092 73.167,370.000 73.167 C 369.908 73.167,369.833 73.054,369.833 72.917 C 369.833 72.779,369.758 72.667,369.667 72.667 C 369.575 72.667,369.500 72.573,369.500 72.458 C 369.500 72.278,369.287 71.976,368.503 71.049 C 368.410 70.938,368.333 70.769,368.333 70.674 C 368.333 70.578,368.258 70.500,368.167 70.500 C 368.075 70.500,368.000 70.378,368.000 70.228 C 368.000 70.078,367.868 69.834,367.707 69.686 C 366.895 68.938,366.895 68.239,367.708 67.482 C 367.869 67.333,368.000 67.160,368.000 67.098 C 368.000 67.036,368.169 66.810,368.375 66.597 C 368.581 66.383,368.900 65.998,369.083 65.741 C 369.267 65.484,369.585 65.103,369.792 64.894 C 369.998 64.686,370.167 64.445,370.167 64.359 C 370.167 64.274,370.579 63.778,371.083 63.257 C 371.587 62.737,372.000 62.241,372.000 62.156 C 372.000 62.070,372.300 61.691,372.667 61.313 C 373.033 60.936,373.333 60.568,373.333 60.497 C 373.333 60.426,373.671 60.011,374.083 59.574 C 374.496 59.138,374.833 58.718,374.833 58.641 C 374.833 58.565,375.152 58.178,375.542 57.781 C 375.931 57.385,376.356 56.859,376.486 56.614 C 376.617 56.368,376.785 56.167,376.861 56.167 C 376.938 56.167,377.000 56.086,377.000 55.988 C 377.000 55.788,377.413 55.333,377.595 55.333 C 377.813 55.333,378.156 54.754,378.161 54.375 L 378.167 54.000 371.742 54.000 L 365.318 54.000 364.909 54.409 C 364.684 54.634,364.500 54.902,364.500 55.004 C 364.500 55.106,364.238 55.465,363.918 55.803 C 363.598 56.140,363.336 56.494,363.335 56.588 C 363.334 56.683,363.183 56.868,363.000 57.000 C 362.817 57.132,362.667 57.336,362.667 57.453 C 362.667 57.571,362.604 57.667,362.528 57.667 C 362.452 57.667,362.283 57.867,362.153 58.111 C 362.023 58.355,361.729 58.754,361.500 58.996 C 360.859 59.673,360.500 60.154,360.500 60.335 C 360.500 60.426,360.438 60.500,360.361 60.500 C 360.285 60.500,360.117 60.701,359.986 60.947 C 359.856 61.192,359.506 61.653,359.208 61.970 C 358.910 62.287,358.667 62.632,358.667 62.737 C 358.667 62.841,358.517 63.035,358.333 63.167 C 358.150 63.299,358.000 63.503,358.000 63.620 C 358.000 63.737,357.925 63.833,357.833 63.833 C 357.742 63.833,357.667 63.906,357.667 63.994 C 357.667 64.083,357.448 64.379,357.181 64.652 C 356.913 64.926,356.646 65.303,356.586 65.491 C 356.233 66.604,356.174 64.897,356.172 53.571 C 356.171 46.826,356.128 41.239,356.076 41.154 C 356.020 41.065,353.736 41.000,350.657 41.000 L 345.333 41.000 345.333 64.250 M230.167 65.333 L 230.167 87.500 241.407 87.500 C 248.720 87.500,252.683 87.442,252.750 87.333 C 252.807 87.242,253.294 87.167,253.833 87.167 C 254.373 87.167,254.860 87.092,254.917 87.000 C 254.973 86.908,255.243 86.833,255.515 86.833 C 255.802 86.833,256.051 86.728,256.106 86.583 C 256.161 86.441,256.410 86.333,256.684 86.333 C 256.950 86.333,257.167 86.258,257.167 86.167 C 257.167 86.075,257.392 86.000,257.667 86.000 C 257.942 86.000,258.167 85.940,258.167 85.867 C 258.167 85.794,258.429 85.639,258.750 85.523 C 259.071 85.407,259.333 85.242,259.333 85.156 C 259.333 85.070,259.473 85.000,259.643 85.000 C 259.814 85.000,260.094 84.813,260.266 84.583 C 260.438 84.354,260.681 84.167,260.806 84.167 C 260.931 84.167,261.243 83.942,261.500 83.667 C 261.757 83.392,262.049 83.167,262.150 83.167 C 262.251 83.167,262.335 83.110,262.338 83.042 C 262.341 82.973,262.641 82.582,263.005 82.173 C 263.369 81.764,263.667 81.332,263.667 81.214 C 263.667 81.096,263.742 81.000,263.833 81.000 C 263.925 81.000,264.000 80.891,264.000 80.759 C 264.000 80.626,264.188 80.315,264.417 80.068 C 264.646 79.820,264.833 79.441,264.833 79.226 C 264.833 79.010,264.908 78.833,265.000 78.833 C 265.092 78.833,265.167 78.571,265.167 78.250 C 265.167 77.929,265.242 77.667,265.333 77.667 C 265.427 77.667,265.500 77.194,265.500 76.583 C 265.500 75.972,265.573 75.500,265.667 75.500 C 265.767 75.500,265.833 74.837,265.833 73.843 C 265.833 72.918,265.760 72.141,265.667 72.083 C 265.575 72.027,265.500 71.572,265.500 71.073 C 265.500 70.575,265.425 70.167,265.333 70.167 C 265.242 70.167,265.167 69.942,265.167 69.667 C 265.167 69.392,265.092 69.167,265.000 69.167 C 264.908 69.167,264.833 69.066,264.833 68.942 C 264.833 68.608,264.332 67.667,264.154 67.667 C 264.070 67.667,264.000 67.549,264.000 67.404 C 264.000 67.088,262.145 65.167,261.839 65.167 C 261.720 65.167,261.501 65.033,261.353 64.871 C 260.975 64.456,260.226 64.000,259.923 64.000 C 259.782 64.000,259.667 63.925,259.667 63.833 C 259.667 63.742,259.479 63.667,259.250 63.667 C 259.021 63.667,258.833 63.592,258.833 63.500 C 258.833 63.408,258.608 63.333,258.333 63.333 C 257.729 63.333,257.657 62.939,258.208 62.646 C 258.415 62.537,258.705 62.309,258.853 62.141 C 259.001 61.972,259.245 61.833,259.395 61.833 C 259.544 61.833,259.667 61.708,259.667 61.556 C 259.667 61.403,259.716 61.327,259.776 61.387 C 259.836 61.447,260.116 61.178,260.398 60.790 C 260.681 60.401,261.044 59.938,261.206 59.760 C 261.368 59.583,261.500 59.339,261.500 59.219 C 261.500 59.098,261.575 59.000,261.667 59.000 C 261.758 59.000,261.833 58.813,261.833 58.583 C 261.833 58.354,261.900 58.167,261.981 58.167 C 262.206 58.167,262.667 56.607,262.667 55.844 C 262.667 55.471,262.742 55.167,262.833 55.167 C 262.932 55.167,263.000 54.556,263.000 53.667 C 263.000 52.778,262.932 52.167,262.833 52.167 C 262.742 52.167,262.667 51.754,262.667 51.250 C 262.667 50.746,262.592 50.333,262.500 50.333 C 262.408 50.333,262.333 50.108,262.333 49.833 C 262.333 49.500,262.250 49.333,262.083 49.333 C 261.928 49.333,261.833 49.176,261.833 48.917 C 261.833 48.688,261.758 48.500,261.667 48.500 C 261.575 48.500,261.500 48.367,261.500 48.203 C 261.500 48.040,261.350 47.799,261.167 47.667 C 260.983 47.535,260.833 47.344,260.833 47.242 C 260.833 47.045,260.139 46.333,259.946 46.333 C 259.882 46.333,259.595 46.108,259.307 45.833 C 259.019 45.558,258.689 45.333,258.573 45.333 C 258.456 45.333,258.335 45.255,258.303 45.159 C 258.271 45.064,258.077 44.973,257.873 44.957 C 257.668 44.942,257.500 44.876,257.500 44.810 C 257.500 44.641,256.506 44.167,256.151 44.167 C 255.987 44.167,255.807 44.092,255.750 44.000 C 255.693 43.908,255.393 43.833,255.083 43.833 C 254.773 43.833,254.473 43.758,254.417 43.667 C 254.360 43.575,253.835 43.500,253.250 43.500 C 252.665 43.500,252.140 43.425,252.083 43.333 C 252.016 43.225,248.165 43.167,241.073 43.167 L 230.167 43.167 230.167 65.333 M2.116 50.282 C 2.167 52.189,2.277 53.825,2.362 53.917 C 2.610 54.185,29.500 54.309,29.500 54.042 C 29.500 53.877,26.690 53.833,16.003 53.833 L 2.507 53.833 2.462 50.389 C 2.430 47.927,2.361 46.926,2.220 46.879 C 2.072 46.829,2.046 47.659,2.116 50.282 M247.167 52.000 C 247.167 52.092,247.504 52.167,247.917 52.167 C 248.329 52.167,248.667 52.242,248.667 52.333 C 248.667 52.425,248.782 52.500,248.922 52.500 C 249.481 52.500,250.519 53.855,250.740 54.875 C 250.795 55.127,250.913 55.333,251.003 55.333 C 251.261 55.333,251.194 56.330,250.917 56.607 C 250.779 56.745,250.667 57.114,250.667 57.429 C 250.667 57.743,250.592 58.000,250.500 58.000 C 250.408 58.000,250.333 58.116,250.333 58.258 C 250.333 58.813,248.789 59.867,247.657 60.085 C 247.434 60.128,247.226 60.239,247.195 60.332 C 247.160 60.436,246.097 60.500,244.403 60.500 L 241.667 60.500 241.667 56.167 L 241.667 51.833 244.417 51.833 C 246.139 51.833,247.167 51.896,247.167 52.000 M283.986 52.902 C 283.948 52.939,282.679 53.006,281.167 53.050 C 279.654 53.094,278.192 53.208,277.917 53.303 C 277.642 53.398,276.744 53.511,275.923 53.553 C 275.043 53.599,274.403 53.706,274.367 53.815 C 274.333 53.917,273.974 54.000,273.569 54.000 C 273.165 54.000,272.833 54.075,272.833 54.167 C 272.833 54.258,272.496 54.333,272.083 54.333 L 271.333 54.333 271.333 58.667 L 271.333 63.000 272.333 63.000 C 272.889 63.000,273.333 62.926,273.333 62.833 C 273.333 62.742,273.486 62.667,273.672 62.667 C 273.858 62.667,274.054 62.554,274.106 62.417 C 274.161 62.274,274.410 62.167,274.684 62.167 C 274.950 62.167,275.167 62.092,275.167 62.000 C 275.167 61.908,275.429 61.833,275.750 61.833 C 276.071 61.833,276.333 61.758,276.333 61.667 C 276.333 61.575,276.554 61.500,276.823 61.500 C 277.093 61.500,277.360 61.425,277.417 61.333 C 277.473 61.242,277.773 61.167,278.083 61.167 C 278.393 61.167,278.693 61.092,278.750 61.000 C 278.812 60.899,280.002 60.833,281.760 60.833 C 283.587 60.833,284.667 60.895,284.667 61.000 C 284.667 61.092,284.855 61.167,285.086 61.167 C 285.621 61.167,286.833 61.542,286.833 61.707 C 286.833 61.777,286.946 61.833,287.083 61.833 C 287.221 61.833,287.333 61.900,287.333 61.981 C 287.333 62.062,287.483 62.167,287.667 62.215 C 287.850 62.263,288.000 62.422,288.000 62.568 C 288.000 62.714,288.075 62.833,288.167 62.833 C 288.258 62.833,288.333 62.946,288.333 63.083 C 288.333 63.221,288.408 63.333,288.500 63.333 C 288.592 63.333,288.667 63.591,288.667 63.907 C 288.667 64.222,288.742 64.527,288.833 64.583 C 289.395 64.930,288.955 65.167,287.750 65.167 C 287.028 65.167,286.500 65.237,286.500 65.333 C 286.500 65.434,285.809 65.500,284.760 65.500 C 283.780 65.500,282.975 65.573,282.917 65.667 C 282.860 65.758,282.223 65.833,281.500 65.833 C 280.777 65.833,280.140 65.908,280.083 66.000 C 280.027 66.092,279.614 66.167,279.167 66.167 C 278.719 66.167,278.307 66.242,278.250 66.333 C 278.193 66.425,277.932 66.500,277.669 66.500 C 277.406 66.500,277.078 66.612,276.940 66.750 C 276.803 66.887,276.460 67.000,276.179 67.000 C 275.897 67.000,275.667 67.075,275.667 67.167 C 275.667 67.258,275.521 67.333,275.343 67.333 C 275.165 67.333,274.973 67.408,274.917 67.500 C 274.860 67.592,274.631 67.667,274.407 67.667 C 274.183 67.667,274.000 67.734,274.000 67.815 C 274.000 67.897,273.826 68.007,273.614 68.061 C 273.274 68.146,273.033 68.307,272.215 68.997 C 272.105 69.090,271.967 69.167,271.909 69.167 C 271.717 69.167,270.014 71.027,269.912 71.349 C 269.856 71.524,269.741 71.667,269.655 71.667 C 269.570 71.667,269.500 71.817,269.500 72.000 C 269.500 72.183,269.425 72.333,269.333 72.333 C 269.242 72.333,269.167 72.521,269.167 72.750 C 269.167 72.979,269.092 73.167,269.000 73.167 C 268.908 73.167,268.833 73.460,268.833 73.819 C 268.833 74.194,268.744 74.502,268.625 74.542 C 268.469 74.594,268.417 75.330,268.417 77.464 C 268.417 79.524,268.475 80.374,268.625 80.525 C 268.740 80.640,268.833 80.944,268.833 81.202 C 268.833 81.460,268.900 81.801,268.981 81.961 C 269.062 82.120,269.343 82.690,269.606 83.228 C 270.062 84.161,272.467 86.833,272.851 86.833 C 272.941 86.833,273.175 86.983,273.372 87.167 C 273.569 87.350,273.865 87.500,274.031 87.500 C 274.197 87.500,274.333 87.575,274.333 87.667 C 274.333 87.758,274.558 87.833,274.833 87.833 C 275.108 87.833,275.333 87.908,275.333 88.000 C 275.333 88.092,275.746 88.167,276.250 88.167 C 276.754 88.167,277.167 88.242,277.167 88.333 C 277.167 88.435,277.917 88.500,279.083 88.500 C 280.250 88.500,281.000 88.435,281.000 88.333 C 281.000 88.242,281.412 88.167,281.917 88.167 C 282.421 88.167,282.833 88.092,282.833 88.000 C 282.833 87.908,283.054 87.833,283.323 87.833 C 283.593 87.833,283.860 87.758,283.917 87.667 C 283.973 87.575,284.132 87.500,284.270 87.500 C 284.618 87.500,286.252 86.683,286.655 86.309 C 286.837 86.139,287.049 86.000,287.125 86.000 C 287.201 86.000,287.636 85.663,288.090 85.251 L 288.917 84.503 288.965 86.001 L 289.013 87.500 294.425 87.500 L 299.837 87.500 299.775 74.792 C 299.716 62.668,299.655 60.782,299.316 60.572 C 299.234 60.522,299.167 60.306,299.167 60.094 C 299.167 59.881,299.054 59.614,298.917 59.500 C 298.779 59.386,298.667 59.152,298.667 58.980 C 298.667 58.807,298.592 58.667,298.500 58.667 C 298.408 58.667,298.333 58.555,298.333 58.419 C 298.333 58.282,298.202 58.012,298.042 57.819 C 297.384 57.025,296.858 56.500,296.720 56.500 C 296.639 56.500,296.463 56.342,296.328 56.150 C 295.998 55.678,294.408 54.667,293.997 54.667 C 293.815 54.667,293.667 54.592,293.667 54.500 C 293.667 54.408,293.521 54.333,293.343 54.333 C 293.165 54.333,292.973 54.258,292.917 54.167 C 292.860 54.075,292.608 54.000,292.357 54.000 C 292.106 54.000,291.827 53.927,291.739 53.839 C 291.650 53.750,291.279 53.635,290.914 53.584 C 290.549 53.532,290.077 53.452,289.865 53.406 C 288.363 53.078,284.172 52.718,283.986 52.902 M324.667 53.125 C 324.347 53.163,324.007 53.258,323.912 53.337 C 323.817 53.416,323.554 53.516,323.328 53.559 C 322.444 53.728,319.648 55.348,318.832 56.165 C 318.022 56.974,317.633 56.768,317.814 55.625 C 317.824 55.556,317.758 55.500,317.667 55.500 C 317.575 55.500,317.500 55.163,317.500 54.750 L 317.500 54.000 316.081 54.000 C 315.301 54.000,314.513 53.925,314.331 53.833 C 314.149 53.742,313.858 53.596,313.685 53.510 C 313.263 53.300,313.097 53.493,313.461 53.770 C 313.703 53.954,313.174 53.990,310.208 53.995 L 306.665 54.000 306.708 70.708 L 306.750 87.417 312.292 87.461 L 317.833 87.504 317.833 75.828 L 317.833 64.152 318.242 63.742 C 318.467 63.517,318.763 63.333,318.899 63.333 C 319.036 63.333,319.193 63.258,319.250 63.167 C 319.307 63.075,319.499 63.000,319.677 63.000 C 319.854 63.000,320.000 62.925,320.000 62.833 C 320.000 62.742,320.182 62.667,320.405 62.667 C 320.627 62.667,320.922 62.554,321.060 62.417 C 321.250 62.226,321.726 62.167,323.054 62.167 C 324.450 62.167,324.817 62.216,324.894 62.417 C 324.946 62.554,325.092 62.667,325.218 62.667 C 325.509 62.667,326.500 63.747,326.500 64.065 C 326.500 64.197,326.575 64.331,326.666 64.361 C 326.758 64.392,326.845 64.743,326.861 65.141 C 326.876 65.539,326.989 65.965,327.110 66.086 C 327.288 66.264,327.339 68.367,327.374 76.862 L 327.417 87.417 332.917 87.417 L 338.417 87.417 338.455 75.300 C 338.480 67.515,338.435 63.146,338.330 63.081 C 338.240 63.026,338.167 62.578,338.167 62.085 C 338.167 61.512,338.077 61.101,337.917 60.940 C 337.779 60.803,337.667 60.427,337.667 60.105 C 337.667 59.783,337.592 59.473,337.500 59.417 C 337.408 59.360,337.333 59.168,337.333 58.990 C 337.333 58.812,337.258 58.667,337.167 58.667 C 337.075 58.667,336.998 58.498,336.996 58.292 C 336.994 58.085,336.846 57.729,336.667 57.500 C 336.487 57.271,336.339 57.002,336.337 56.903 C 336.335 56.803,336.127 56.536,335.875 56.308 C 335.623 56.081,335.192 55.631,334.917 55.310 C 334.642 54.988,334.173 54.618,333.875 54.488 C 333.577 54.358,333.333 54.195,333.333 54.126 C 333.333 54.057,333.115 54.000,332.847 54.000 C 332.580 54.000,332.335 53.922,332.303 53.826 C 332.271 53.730,332.077 53.639,331.873 53.624 C 331.668 53.608,331.500 53.512,331.500 53.409 C 331.500 53.306,331.406 53.214,331.292 53.203 C 330.535 53.133,325.142 53.070,324.667 53.125 M39.083 53.845 C 39.267 53.917,39.942 53.976,40.583 53.975 C 42.061 53.973,41.816 53.881,40.083 53.786 C 39.344 53.746,38.899 53.772,39.083 53.845 M60.675 53.888 C 60.839 54.032,73.500 54.148,73.500 54.005 C 73.500 53.919,70.746 53.848,67.050 53.839 C 63.503 53.830,60.634 53.852,60.675 53.888 M250.000 68.833 C 250.000 68.925,250.188 69.000,250.417 69.000 C 250.646 69.000,250.833 69.068,250.833 69.150 C 250.833 69.233,251.055 69.378,251.325 69.472 C 252.001 69.708,253.333 71.129,253.333 71.613 C 253.333 71.826,253.408 72.000,253.500 72.000 C 253.599 72.000,253.667 72.611,253.667 73.500 C 253.667 74.389,253.599 75.000,253.500 75.000 C 253.408 75.000,253.333 75.217,253.333 75.482 C 253.333 75.757,253.226 76.006,253.083 76.060 C 252.946 76.113,252.832 76.252,252.830 76.370 C 252.829 76.487,252.605 76.771,252.332 77.000 C 252.060 77.229,251.652 77.585,251.426 77.792 C 251.188 78.009,250.801 78.167,250.508 78.167 C 250.228 78.167,250.000 78.242,250.000 78.333 C 250.000 78.425,249.700 78.500,249.333 78.500 C 248.967 78.500,248.667 78.575,248.667 78.667 C 248.667 78.772,247.389 78.833,245.167 78.833 L 241.667 78.833 241.667 73.750 L 241.667 68.667 245.833 68.667 C 248.500 68.667,250.000 68.727,250.000 68.833 M289.000 75.063 L 289.000 78.127 288.292 78.750 C 287.902 79.094,287.415 79.452,287.208 79.547 C 287.002 79.642,286.833 79.788,286.833 79.870 C 286.833 79.952,286.764 79.977,286.680 79.925 C 286.596 79.873,286.414 79.943,286.275 80.082 C 286.137 80.220,285.835 80.333,285.605 80.333 C 285.375 80.333,285.140 80.408,285.083 80.500 C 285.027 80.592,284.422 80.667,283.740 80.667 C 283.024 80.667,282.500 80.596,282.500 80.500 C 282.500 80.408,282.237 80.333,281.917 80.333 C 281.596 80.333,281.333 80.277,281.333 80.207 C 281.333 80.138,281.122 79.988,280.864 79.874 C 279.651 79.337,279.038 75.995,279.968 74.996 C 280.169 74.780,280.333 74.517,280.333 74.412 C 280.333 74.306,280.523 74.134,280.755 74.028 C 280.986 73.923,281.219 73.723,281.273 73.585 C 281.326 73.446,281.548 73.333,281.768 73.333 C 281.987 73.333,282.167 73.258,282.167 73.167 C 282.167 73.075,282.425 73.000,282.740 73.000 C 283.056 73.000,283.360 72.925,283.417 72.833 C 283.473 72.742,283.928 72.667,284.427 72.667 C 284.925 72.667,285.333 72.592,285.333 72.500 C 285.333 72.403,285.904 72.332,286.708 72.331 C 287.465 72.329,288.196 72.256,288.333 72.167 C 288.967 71.757,289.000 71.900,289.000 75.063 " stroke="none" fill="#5be4e4" fill-rule="evenodd"></path><path id="path1" d="M52.500 37.167 C 52.500 37.258,52.200 37.333,51.833 37.333 C 51.467 37.333,51.167 37.408,51.167 37.500 C 51.167 37.592,50.904 37.667,50.583 37.667 C 50.262 37.667,50.000 37.742,50.000 37.833 C 50.000 37.925,49.775 38.000,49.500 38.000 C 49.167 38.000,49.000 38.083,49.000 38.250 C 49.000 38.406,48.843 38.500,48.583 38.500 C 48.354 38.500,48.167 38.575,48.167 38.667 C 48.167 38.758,48.049 38.833,47.905 38.833 C 47.617 38.833,47.167 39.219,47.167 39.465 C 47.167 39.550,46.979 39.585,46.750 39.541 C 46.507 39.494,46.333 39.539,46.333 39.647 C 46.333 39.750,46.215 39.833,46.071 39.833 C 45.814 39.833,45.333 40.210,45.333 40.412 C 45.333 40.547,44.546 41.333,44.411 41.333 C 44.282 41.333,43.197 42.460,42.752 43.056 C 42.570 43.300,42.358 43.500,42.282 43.500 C 42.050 43.500,41.667 43.960,41.667 44.238 C 41.667 44.382,41.592 44.500,41.500 44.500 C 41.408 44.500,41.333 44.688,41.333 44.917 C 41.333 45.146,41.258 45.333,41.167 45.333 C 41.075 45.333,41.000 45.467,41.000 45.630 C 41.000 45.793,40.850 46.035,40.667 46.167 C 40.483 46.299,40.333 46.578,40.333 46.787 C 40.333 47.013,40.232 47.167,40.083 47.167 C 39.917 47.167,39.833 47.333,39.833 47.667 C 39.833 47.942,39.758 48.167,39.667 48.167 C 39.575 48.167,39.500 48.387,39.500 48.657 C 39.500 48.926,39.425 49.193,39.333 49.250 C 39.242 49.307,39.167 49.724,39.167 50.177 C 39.167 50.629,39.092 51.000,39.000 51.000 C 38.906 51.000,38.833 51.472,38.833 52.083 C 38.833 52.898,38.891 53.167,39.066 53.167 C 39.193 53.167,39.341 53.279,39.394 53.417 C 39.478 53.637,41.533 53.667,56.495 53.667 L 73.500 53.667 73.500 53.167 C 73.500 52.861,73.414 52.667,73.278 52.667 C 73.104 52.667,73.072 52.373,73.132 51.333 C 73.199 50.181,73.173 50.000,72.938 50.000 C 72.739 50.000,72.667 49.845,72.667 49.417 C 72.667 49.096,72.592 48.833,72.500 48.833 C 72.408 48.833,72.333 48.608,72.333 48.333 C 72.333 48.058,72.258 47.833,72.167 47.833 C 72.075 47.833,72.000 47.576,72.000 47.261 C 72.000 46.836,71.915 46.662,71.667 46.583 C 71.429 46.508,71.333 46.331,71.333 45.966 C 71.333 45.635,71.187 45.319,70.917 45.069 C 70.688 44.856,70.500 44.597,70.500 44.491 C 70.500 44.386,70.275 44.090,70.000 43.833 C 69.725 43.576,69.500 43.246,69.500 43.100 C 69.500 42.953,69.425 42.833,69.333 42.833 C 69.242 42.833,69.167 42.753,69.167 42.655 C 69.167 42.460,68.756 42.000,68.582 42.000 C 68.523 42.000,68.186 41.700,67.833 41.333 C 67.481 40.967,67.074 40.667,66.930 40.667 C 66.785 40.667,66.667 40.554,66.667 40.417 C 66.667 40.279,66.571 40.167,66.453 40.167 C 66.336 40.167,66.132 40.017,66.000 39.833 C 65.868 39.650,65.626 39.500,65.463 39.500 C 65.300 39.500,65.167 39.425,65.167 39.333 C 65.167 39.242,65.017 39.167,64.833 39.167 C 64.650 39.167,64.500 39.092,64.500 39.000 C 64.500 38.908,64.313 38.833,64.083 38.833 C 63.854 38.833,63.667 38.758,63.667 38.667 C 63.667 38.575,63.517 38.500,63.333 38.500 C 63.148 38.500,63.000 38.389,63.000 38.250 C 63.000 38.112,62.854 38.000,62.677 38.000 C 62.499 38.000,62.307 37.925,62.250 37.833 C 62.193 37.742,61.851 37.667,61.490 37.667 C 61.129 37.667,60.833 37.592,60.833 37.500 C 60.833 37.408,60.496 37.333,60.083 37.333 C 59.671 37.333,59.333 37.258,59.333 37.167 C 59.333 37.061,58.083 37.000,55.917 37.000 C 53.750 37.000,52.500 37.061,52.500 37.167 M136.333 42.167 C 136.333 42.267,135.667 42.333,134.667 42.333 C 133.750 42.333,133.000 42.401,133.000 42.484 C 133.000 42.567,132.625 42.687,132.167 42.750 C 131.709 42.813,131.292 42.933,131.240 43.016 C 131.189 43.099,130.926 43.167,130.657 43.167 C 130.387 43.167,130.167 43.242,130.167 43.333 C 130.167 43.425,129.904 43.500,129.583 43.500 C 129.262 43.500,129.000 43.575,129.000 43.667 C 129.000 43.758,128.850 43.833,128.667 43.833 C 128.483 43.833,128.333 43.908,128.333 44.000 C 128.333 44.092,128.108 44.167,127.833 44.167 C 127.558 44.167,127.333 44.242,127.333 44.333 C 127.333 44.425,127.221 44.500,127.083 44.500 C 126.946 44.500,126.833 44.575,126.833 44.667 C 126.833 44.758,126.718 44.833,126.578 44.833 C 126.438 44.833,126.280 44.946,126.227 45.083 C 126.174 45.221,126.006 45.333,125.852 45.333 C 125.699 45.333,125.465 45.483,125.333 45.667 C 125.201 45.850,124.957 46.000,124.791 46.000 C 124.515 46.000,123.333 47.019,123.333 47.256 C 123.333 47.393,122.885 47.833,122.745 47.833 C 122.537 47.833,121.167 49.385,121.167 49.622 C 121.167 49.883,120.772 50.333,120.543 50.333 C 120.363 50.333,119.667 51.605,119.667 51.932 C 119.667 52.061,119.592 52.167,119.500 52.167 C 119.408 52.167,119.333 52.317,119.333 52.500 C 119.333 52.683,119.258 52.833,119.167 52.833 C 119.075 52.833,119.000 52.983,119.000 53.167 C 119.000 53.350,118.925 53.500,118.833 53.500 C 118.742 53.500,118.667 53.688,118.667 53.917 C 118.667 54.176,118.572 54.333,118.417 54.333 C 118.250 54.333,118.167 54.500,118.167 54.833 C 118.167 55.108,118.092 55.333,118.000 55.333 C 117.908 55.333,117.833 55.596,117.833 55.917 C 117.833 56.237,117.758 56.500,117.667 56.500 C 117.575 56.500,117.500 56.725,117.500 57.000 C 117.500 57.275,117.425 57.500,117.333 57.500 C 117.242 57.500,117.167 57.913,117.167 58.417 C 117.167 58.921,117.092 59.333,117.000 59.333 C 116.900 59.333,116.833 60.000,116.833 61.000 C 116.833 62.000,116.767 62.667,116.667 62.667 C 116.563 62.667,116.500 63.667,116.500 65.333 C 116.500 67.000,116.563 68.000,116.667 68.000 C 116.766 68.000,116.833 68.639,116.833 69.583 C 116.833 70.528,116.901 71.167,117.000 71.167 C 117.092 71.167,117.167 71.579,117.167 72.083 C 117.167 72.587,117.242 73.000,117.333 73.000 C 117.425 73.000,117.500 73.262,117.500 73.583 C 117.500 73.904,117.575 74.167,117.667 74.167 C 117.758 74.167,117.833 74.392,117.833 74.667 C 117.833 74.942,117.908 75.167,118.000 75.167 C 118.092 75.167,118.167 75.394,118.167 75.672 C 118.167 75.967,118.271 76.217,118.417 76.273 C 118.554 76.326,118.667 76.511,118.667 76.684 C 118.667 76.858,118.742 77.000,118.833 77.000 C 118.925 77.000,119.000 77.150,119.000 77.333 C 119.000 77.517,119.075 77.667,119.167 77.667 C 119.258 77.667,119.333 77.854,119.333 78.083 C 119.333 78.313,119.408 78.500,119.500 78.500 C 119.592 78.500,119.667 78.650,119.667 78.833 C 119.667 79.017,119.742 79.167,119.833 79.167 C 119.925 79.167,120.000 79.289,120.000 79.439 C 120.000 79.588,120.263 79.958,120.583 80.261 C 120.904 80.563,121.167 80.891,121.167 80.989 C 121.167 81.086,121.467 81.475,121.833 81.853 C 122.200 82.231,122.500 82.606,122.500 82.687 C 122.500 82.767,122.577 82.833,122.670 82.833 C 122.764 82.833,123.253 83.246,123.757 83.750 C 124.261 84.254,124.768 84.667,124.883 84.667 C 124.999 84.667,125.201 84.817,125.333 85.000 C 125.465 85.183,125.690 85.333,125.833 85.333 C 125.976 85.333,126.201 85.483,126.333 85.667 C 126.465 85.850,126.745 86.000,126.953 86.000 C 127.162 86.000,127.333 86.075,127.333 86.167 C 127.333 86.258,127.451 86.333,127.595 86.333 C 127.739 86.333,127.970 86.446,128.107 86.583 C 128.245 86.721,128.502 86.833,128.679 86.833 C 128.855 86.833,129.000 86.908,129.000 87.000 C 129.000 87.092,129.262 87.167,129.583 87.167 C 129.904 87.167,130.167 87.242,130.167 87.333 C 130.167 87.425,130.392 87.500,130.667 87.500 C 130.942 87.500,131.167 87.575,131.167 87.667 C 131.167 87.758,131.504 87.833,131.917 87.833 C 132.329 87.833,132.667 87.908,132.667 88.000 C 132.667 88.100,133.333 88.167,134.333 88.167 C 135.333 88.167,136.000 88.233,136.000 88.333 C 136.000 88.436,136.833 88.500,138.167 88.500 C 139.500 88.500,140.333 88.436,140.333 88.333 C 140.333 88.234,140.972 88.167,141.917 88.167 C 142.861 88.167,143.500 88.099,143.500 88.000 C 143.500 87.908,143.837 87.833,144.250 87.833 C 144.662 87.833,145.000 87.758,145.000 87.667 C 145.000 87.575,145.300 87.500,145.667 87.500 C 146.033 87.500,146.333 87.425,146.333 87.333 C 146.333 87.242,146.521 87.167,146.750 87.167 C 146.979 87.167,147.167 87.092,147.167 87.000 C 147.167 86.908,147.357 86.833,147.589 86.833 C 147.821 86.833,148.054 86.721,148.106 86.583 C 148.159 86.446,148.340 86.333,148.508 86.333 C 148.676 86.333,148.860 86.258,148.917 86.167 C 148.973 86.075,149.149 86.000,149.306 86.000 C 149.464 86.000,149.701 85.850,149.833 85.667 C 149.965 85.483,150.207 85.333,150.370 85.333 C 150.533 85.333,150.667 85.258,150.667 85.167 C 150.667 85.075,150.795 85.000,150.952 85.000 C 151.108 85.000,151.701 84.513,152.268 83.917 C 152.835 83.321,153.350 82.833,153.412 82.833 C 153.555 82.833,154.000 82.391,154.000 82.249 C 154.000 82.189,154.300 81.852,154.667 81.500 C 155.033 81.148,155.333 80.741,155.333 80.596 C 155.333 80.452,155.446 80.333,155.583 80.333 C 155.721 80.333,155.833 80.221,155.833 80.083 C 155.833 79.946,155.908 79.833,156.000 79.833 C 156.092 79.833,156.167 79.700,156.167 79.537 C 156.167 79.374,156.317 79.132,156.500 79.000 C 156.683 78.868,156.833 78.626,156.833 78.463 C 156.833 78.300,156.908 78.167,157.000 78.167 C 157.092 78.167,157.167 77.979,157.167 77.750 C 157.167 77.521,157.242 77.333,157.333 77.333 C 157.425 77.333,157.500 77.191,157.500 77.018 C 157.500 76.844,157.612 76.659,157.750 76.606 C 157.896 76.550,158.000 76.301,158.000 76.005 C 158.000 75.727,158.075 75.500,158.167 75.500 C 158.258 75.500,158.333 75.275,158.333 75.000 C 158.333 74.725,158.408 74.500,158.500 74.500 C 158.592 74.500,158.667 74.162,158.667 73.750 C 158.667 73.337,158.742 73.000,158.833 73.000 C 158.925 73.000,159.000 72.587,159.000 72.083 C 159.000 71.579,159.075 71.167,159.167 71.167 C 159.263 71.167,159.333 70.639,159.333 69.917 C 159.333 69.194,159.404 68.667,159.500 68.667 C 159.605 68.667,159.667 67.472,159.667 65.417 C 159.667 63.361,159.605 62.167,159.500 62.167 C 159.402 62.167,159.333 61.583,159.333 60.750 C 159.333 59.917,159.265 59.333,159.167 59.333 C 159.075 59.333,159.000 58.921,159.000 58.417 C 159.000 57.913,158.925 57.500,158.833 57.500 C 158.742 57.500,158.667 57.200,158.667 56.833 C 158.667 56.467,158.592 56.167,158.500 56.167 C 158.408 56.167,158.333 55.904,158.333 55.583 C 158.333 55.262,158.258 55.000,158.167 55.000 C 158.075 55.000,158.000 54.850,158.000 54.667 C 158.000 54.481,157.889 54.333,157.750 54.333 C 157.575 54.333,157.500 54.157,157.500 53.750 C 157.500 53.429,157.425 53.167,157.333 53.167 C 157.242 53.167,157.167 53.017,157.167 52.833 C 157.167 52.650,157.092 52.500,157.000 52.500 C 156.908 52.500,156.833 52.384,156.833 52.243 C 156.833 52.102,156.683 51.825,156.500 51.628 C 156.317 51.431,156.167 51.167,156.167 51.040 C 156.167 50.767,155.765 50.333,155.512 50.333 C 155.414 50.333,155.333 50.222,155.333 50.085 C 155.333 49.949,155.202 49.678,155.042 49.484 C 154.484 48.807,153.525 47.833,153.418 47.833 C 153.274 47.833,152.833 47.388,152.833 47.243 C 152.833 47.025,151.600 46.000,151.338 46.000 C 151.192 46.000,150.965 45.850,150.833 45.667 C 150.701 45.483,150.494 45.333,150.373 45.333 C 150.251 45.333,149.950 45.146,149.703 44.917 C 149.456 44.688,149.159 44.500,149.043 44.500 C 148.928 44.500,148.833 44.425,148.833 44.333 C 148.833 44.242,148.683 44.167,148.500 44.167 C 148.317 44.167,148.167 44.092,148.167 44.000 C 148.167 43.908,147.942 43.833,147.667 43.833 C 147.392 43.833,147.167 43.758,147.167 43.667 C 147.167 43.575,146.904 43.500,146.583 43.500 C 146.262 43.500,146.000 43.425,146.000 43.333 C 146.000 43.242,145.775 43.167,145.500 43.167 C 145.225 43.167,145.000 43.100,145.000 43.019 C 145.000 42.938,144.587 42.820,144.083 42.757 C 143.579 42.694,143.167 42.573,143.167 42.488 C 143.167 42.403,142.417 42.333,141.500 42.333 C 140.500 42.333,139.833 42.267,139.833 42.167 C 139.833 42.066,139.139 42.000,138.083 42.000 C 137.028 42.000,136.333 42.066,136.333 42.167 M138.500 51.167 C 138.500 51.258,138.904 51.333,139.399 51.333 C 140.044 51.333,140.325 51.404,140.394 51.583 C 140.446 51.721,140.679 51.833,140.911 51.833 C 141.143 51.833,141.333 51.908,141.333 52.000 C 141.333 52.092,141.479 52.167,141.657 52.167 C 141.835 52.167,142.027 52.242,142.083 52.333 C 142.140 52.425,142.295 52.500,142.428 52.500 C 142.716 52.500,145.000 54.772,145.000 55.059 C 145.000 55.170,145.150 55.368,145.333 55.500 C 145.517 55.632,145.667 55.911,145.667 56.120 C 145.667 56.329,145.742 56.500,145.833 56.500 C 145.925 56.500,146.000 56.725,146.000 57.000 C 146.000 57.275,146.075 57.500,146.167 57.500 C 146.258 57.500,146.333 57.652,146.333 57.839 C 146.333 58.025,146.446 58.220,146.583 58.273 C 146.746 58.336,146.833 58.595,146.833 59.018 C 146.833 59.375,146.908 59.667,147.000 59.667 C 147.092 59.667,147.167 60.079,147.167 60.583 C 147.167 61.087,147.242 61.500,147.333 61.500 C 147.440 61.500,147.500 62.944,147.500 65.500 C 147.500 68.056,147.440 69.500,147.333 69.500 C 147.242 69.500,147.167 69.912,147.167 70.417 C 147.167 70.921,147.092 71.333,147.000 71.333 C 146.908 71.333,146.833 71.558,146.833 71.833 C 146.833 72.167,146.750 72.333,146.583 72.333 C 146.418 72.333,146.333 72.499,146.333 72.823 C 146.333 73.093,146.258 73.360,146.167 73.417 C 146.075 73.473,146.000 73.665,146.000 73.843 C 146.000 74.021,145.925 74.167,145.833 74.167 C 145.742 74.167,145.667 74.300,145.667 74.463 C 145.667 74.626,145.517 74.868,145.333 75.000 C 145.150 75.132,145.000 75.379,145.000 75.549 C 145.000 75.841,144.639 76.333,144.424 76.333 C 144.252 76.333,142.833 77.816,142.833 77.996 C 142.833 78.090,142.646 78.167,142.417 78.167 C 142.188 78.167,142.000 78.242,142.000 78.333 C 142.000 78.425,141.850 78.500,141.667 78.500 C 141.483 78.500,141.333 78.575,141.333 78.667 C 141.333 78.758,141.183 78.833,141.000 78.833 C 140.817 78.833,140.667 78.908,140.667 79.000 C 140.667 79.092,140.254 79.167,139.750 79.167 C 139.246 79.167,138.833 79.242,138.833 79.333 C 138.833 79.425,138.496 79.500,138.083 79.500 C 137.671 79.500,137.333 79.425,137.333 79.333 C 137.333 79.242,136.921 79.167,136.417 79.167 C 135.912 79.167,135.500 79.092,135.500 79.000 C 135.500 78.908,135.350 78.833,135.167 78.833 C 134.983 78.833,134.833 78.758,134.833 78.667 C 134.833 78.575,134.683 78.500,134.500 78.500 C 134.317 78.500,134.167 78.425,134.167 78.333 C 134.167 78.242,133.979 78.167,133.750 78.167 C 133.521 78.167,133.333 78.090,133.333 77.996 C 133.333 77.774,131.559 76.000,131.337 76.000 C 131.243 76.000,131.167 75.829,131.167 75.620 C 131.167 75.411,131.017 75.132,130.833 75.000 C 130.650 74.868,130.500 74.626,130.500 74.463 C 130.500 74.300,130.425 74.167,130.333 74.167 C 130.242 74.167,130.167 73.946,130.167 73.677 C 130.167 73.407,130.092 73.140,130.000 73.083 C 129.908 73.027,129.833 72.835,129.833 72.657 C 129.833 72.479,129.758 72.333,129.667 72.333 C 129.575 72.333,129.500 72.031,129.500 71.661 C 129.500 71.218,129.415 70.957,129.250 70.894 C 129.075 70.826,129.000 70.553,129.000 69.982 C 129.000 69.534,128.925 69.167,128.833 69.167 C 128.742 69.167,128.667 69.021,128.667 68.843 C 128.667 68.665,128.742 68.473,128.833 68.417 C 128.925 68.360,129.000 67.873,129.000 67.333 C 129.000 66.794,128.925 66.307,128.833 66.250 C 128.736 66.190,128.667 65.248,128.667 63.990 C 128.667 62.663,128.731 61.833,128.833 61.833 C 128.927 61.833,129.000 61.361,129.000 60.750 C 129.000 59.898,129.053 59.667,129.250 59.667 C 129.416 59.667,129.500 59.501,129.500 59.177 C 129.500 58.907,129.575 58.640,129.667 58.583 C 129.758 58.527,129.833 58.260,129.833 57.990 C 129.833 57.721,129.908 57.500,130.000 57.500 C 130.092 57.500,130.167 57.350,130.167 57.167 C 130.167 56.983,130.242 56.833,130.333 56.833 C 130.425 56.833,130.500 56.646,130.500 56.417 C 130.500 56.188,130.575 56.000,130.667 56.000 C 130.758 56.000,130.833 55.850,130.833 55.667 C 130.833 55.483,130.908 55.333,131.000 55.333 C 131.092 55.333,131.167 55.183,131.167 55.000 C 131.167 54.817,131.261 54.667,131.377 54.667 C 131.493 54.667,131.737 54.467,131.919 54.223 C 132.612 53.292,133.487 52.500,133.820 52.500 C 134.011 52.500,134.167 52.444,134.168 52.375 C 134.170 52.225,134.977 51.833,135.283 51.833 C 135.402 51.833,135.500 51.721,135.500 51.583 C 135.500 51.387,135.731 51.333,136.583 51.333 C 137.194 51.333,137.667 51.261,137.667 51.167 C 137.667 51.075,137.854 51.000,138.083 51.000 C 138.313 51.000,138.500 51.075,138.500 51.167 M328.208 52.948 C 328.369 52.990,328.631 52.990,328.792 52.948 C 328.952 52.906,328.821 52.872,328.500 52.872 C 328.179 52.872,328.048 52.906,328.208 52.948 M1.667 57.411 C 1.667 59.581,1.728 60.833,1.833 60.833 C 1.930 60.833,2.000 61.361,2.000 62.083 C 2.000 62.806,2.070 63.333,2.167 63.333 C 2.261 63.333,2.333 63.806,2.333 64.417 C 2.333 65.028,2.406 65.500,2.500 65.500 C 2.592 65.500,2.667 65.796,2.667 66.157 C 2.667 66.518,2.742 66.860,2.833 66.917 C 2.925 66.973,3.000 67.315,3.000 67.677 C 3.000 68.149,3.070 68.333,3.250 68.333 C 3.435 68.333,3.500 68.528,3.500 69.083 C 3.500 69.496,3.575 69.833,3.667 69.833 C 3.758 69.833,3.833 70.058,3.833 70.333 C 3.833 70.608,3.908 70.833,4.000 70.833 C 4.092 70.833,4.167 71.096,4.167 71.417 C 4.167 71.737,4.242 72.000,4.333 72.000 C 4.425 72.000,4.500 72.225,4.500 72.500 C 4.500 72.775,4.575 73.000,4.667 73.000 C 4.758 73.000,4.833 73.221,4.833 73.490 C 4.833 73.760,4.908 74.027,5.000 74.083 C 5.092 74.140,5.167 74.332,5.167 74.510 C 5.167 74.688,5.279 74.833,5.417 74.833 C 5.591 74.833,5.667 75.009,5.667 75.417 C 5.667 75.737,5.742 76.000,5.833 76.000 C 5.925 76.000,6.000 76.150,6.000 76.333 C 6.000 76.517,6.075 76.667,6.167 76.667 C 6.258 76.667,6.333 76.817,6.333 77.000 C 6.333 77.183,6.408 77.333,6.500 77.333 C 6.592 77.333,6.667 77.521,6.667 77.750 C 6.667 77.979,6.742 78.167,6.833 78.167 C 6.925 78.167,7.000 78.317,7.000 78.500 C 7.000 78.683,7.075 78.833,7.167 78.833 C 7.258 78.833,7.333 78.983,7.333 79.167 C 7.333 79.352,7.444 79.500,7.583 79.500 C 7.739 79.500,7.833 79.657,7.833 79.917 C 7.833 80.146,7.908 80.333,8.000 80.333 C 8.092 80.333,8.167 80.483,8.167 80.667 C 8.167 80.850,8.242 81.000,8.333 81.000 C 8.425 81.000,8.500 81.133,8.500 81.297 C 8.500 81.460,8.650 81.701,8.833 81.833 C 9.017 81.965,9.167 82.245,9.167 82.453 C 9.167 82.662,9.242 82.833,9.333 82.833 C 9.425 82.833,9.500 82.935,9.500 83.060 C 9.500 83.185,9.688 83.427,9.917 83.600 C 10.146 83.772,10.333 84.031,10.333 84.175 C 10.333 84.319,10.483 84.598,10.667 84.795 C 10.850 84.992,11.000 85.234,11.000 85.334 C 11.000 85.565,11.763 86.333,11.992 86.333 C 12.088 86.333,12.167 86.491,12.167 86.683 C 12.167 86.876,12.392 87.243,12.667 87.500 C 12.942 87.757,13.167 88.087,13.167 88.234 C 13.167 88.380,13.229 88.500,13.305 88.500 C 13.381 88.500,13.544 88.688,13.667 88.917 C 13.789 89.146,13.955 89.333,14.036 89.333 C 14.245 89.333,15.000 90.117,15.000 90.335 C 15.000 90.436,15.225 90.758,15.499 91.051 C 15.774 91.344,15.999 91.640,15.999 91.708 C 16.000 91.777,16.077 91.833,16.172 91.833 C 16.351 91.833,17.500 92.916,17.500 93.085 C 17.500 93.217,18.292 94.000,18.426 94.000 C 18.485 94.000,18.743 94.225,19.000 94.500 C 19.257 94.775,19.587 95.000,19.734 95.000 C 19.880 95.000,20.000 95.080,20.000 95.179 C 20.000 95.375,20.411 95.833,20.588 95.833 C 20.649 95.833,20.910 96.058,21.167 96.333 C 21.424 96.608,21.737 96.833,21.863 96.833 C 21.990 96.833,22.201 96.983,22.333 97.167 C 22.465 97.350,22.670 97.500,22.787 97.500 C 22.904 97.500,23.000 97.580,23.000 97.679 C 23.000 97.930,23.432 98.333,23.701 98.333 C 23.825 98.333,24.035 98.483,24.167 98.667 C 24.299 98.850,24.561 99.000,24.750 99.000 C 24.939 99.000,25.201 99.150,25.333 99.333 C 25.465 99.517,25.707 99.667,25.870 99.667 C 26.033 99.667,26.167 99.747,26.167 99.845 C 26.167 100.127,26.613 100.500,26.951 100.500 C 27.121 100.500,27.368 100.650,27.500 100.833 C 27.632 101.017,27.874 101.167,28.037 101.167 C 28.200 101.167,28.333 101.242,28.333 101.333 C 28.333 101.425,28.483 101.500,28.667 101.500 C 28.850 101.500,29.000 101.575,29.000 101.667 C 29.000 101.758,29.188 101.833,29.417 101.833 C 29.676 101.833,29.833 101.928,29.833 102.083 C 29.833 102.221,29.967 102.333,30.130 102.333 C 30.293 102.333,30.535 102.483,30.667 102.667 C 30.799 102.850,31.078 103.000,31.287 103.000 C 31.496 103.000,31.667 103.075,31.667 103.167 C 31.667 103.258,31.892 103.333,32.167 103.333 C 32.442 103.333,32.667 103.408,32.667 103.500 C 32.667 103.592,32.817 103.667,33.000 103.667 C 33.183 103.667,33.333 103.742,33.333 103.833 C 33.333 103.925,33.521 104.000,33.750 104.000 C 34.009 104.000,34.167 104.094,34.167 104.250 C 34.167 104.389,34.315 104.500,34.500 104.500 C 34.683 104.500,34.833 104.575,34.833 104.667 C 34.833 104.758,35.096 104.833,35.417 104.833 C 35.737 104.833,36.000 104.908,36.000 105.000 C 36.000 105.092,36.150 105.167,36.333 105.167 C 36.517 105.167,36.667 105.242,36.667 105.333 C 36.667 105.425,36.892 105.500,37.167 105.500 C 37.442 105.500,37.667 105.575,37.667 105.667 C 37.667 105.758,37.929 105.833,38.250 105.833 C 38.571 105.833,38.833 105.908,38.833 106.000 C 38.833 106.092,39.050 106.167,39.316 106.167 C 39.590 106.167,39.839 106.274,39.894 106.417 C 39.957 106.582,40.218 106.667,40.661 106.667 C 41.031 106.667,41.333 106.742,41.333 106.833 C 41.333 106.925,41.671 107.000,42.083 107.000 C 42.496 107.000,42.833 107.075,42.833 107.167 C 42.833 107.258,43.133 107.333,43.500 107.333 C 43.867 107.333,44.167 107.408,44.167 107.500 C 44.167 107.592,44.579 107.667,45.083 107.667 C 45.587 107.667,46.000 107.742,46.000 107.833 C 46.000 107.927,46.472 108.000,47.083 108.000 C 47.694 108.000,48.167 108.073,48.167 108.167 C 48.167 108.268,48.889 108.333,50.000 108.333 C 51.519 108.333,51.833 108.376,51.833 108.583 C 51.833 108.799,52.417 108.833,56.089 108.833 C 59.717 108.833,60.358 108.797,60.440 108.583 C 60.516 108.386,60.863 108.333,62.101 108.333 C 63.034 108.333,63.667 108.266,63.667 108.167 C 63.667 108.073,64.139 108.000,64.750 108.000 C 65.361 108.000,65.833 107.927,65.833 107.833 C 65.833 107.739,66.306 107.667,66.917 107.667 C 67.528 107.667,68.000 107.594,68.000 107.500 C 68.000 107.408,68.337 107.333,68.750 107.333 C 69.162 107.333,69.500 107.258,69.500 107.167 C 69.500 107.075,69.796 107.000,70.157 107.000 C 70.518 107.000,70.860 106.925,70.917 106.833 C 70.973 106.742,71.240 106.667,71.510 106.667 C 71.834 106.667,72.000 106.582,72.000 106.417 C 72.000 106.242,72.176 106.167,72.583 106.167 C 72.904 106.167,73.167 106.092,73.167 106.000 C 73.167 105.908,73.392 105.833,73.667 105.833 C 73.942 105.833,74.167 105.758,74.167 105.667 C 74.167 105.575,74.429 105.500,74.750 105.500 C 75.071 105.500,75.333 105.425,75.333 105.333 C 75.333 105.242,75.558 105.167,75.833 105.167 C 76.108 105.167,76.333 105.092,76.333 105.000 C 76.333 104.908,76.483 104.833,76.667 104.833 C 76.850 104.833,77.000 104.758,77.000 104.667 C 77.000 104.575,77.227 104.500,77.505 104.500 C 77.801 104.500,78.050 104.396,78.106 104.250 C 78.159 104.112,78.344 104.000,78.518 104.000 C 78.691 104.000,78.833 103.925,78.833 103.833 C 78.833 103.742,79.021 103.667,79.250 103.667 C 79.479 103.667,79.667 103.592,79.667 103.500 C 79.667 103.408,79.817 103.333,80.000 103.333 C 80.183 103.333,80.333 103.258,80.333 103.167 C 80.333 103.075,80.483 103.000,80.667 103.000 C 80.850 103.000,81.000 102.925,81.000 102.833 C 81.000 102.742,81.146 102.667,81.323 102.667 C 81.501 102.667,81.693 102.592,81.750 102.500 C 81.807 102.408,81.999 102.333,82.177 102.333 C 82.354 102.333,82.500 102.221,82.500 102.083 C 82.500 101.946,82.633 101.833,82.797 101.833 C 82.960 101.833,83.201 101.683,83.333 101.500 C 83.465 101.317,83.745 101.167,83.953 101.167 C 84.162 101.167,84.333 101.092,84.333 101.000 C 84.333 100.908,84.467 100.833,84.630 100.833 C 84.793 100.833,85.035 100.683,85.167 100.500 C 85.299 100.317,85.530 100.167,85.680 100.167 C 85.830 100.167,86.094 99.979,86.266 99.750 C 86.438 99.521,86.695 99.333,86.836 99.333 C 86.977 99.333,87.201 99.183,87.333 99.000 C 87.465 98.817,87.688 98.667,87.828 98.666 C 88.141 98.666,89.000 97.949,89.000 97.689 C 89.000 97.585,89.133 97.500,89.297 97.500 C 89.460 97.500,89.701 97.350,89.833 97.167 C 89.965 96.983,90.153 96.833,90.250 96.833 C 90.347 96.833,90.535 96.683,90.667 96.500 C 90.799 96.317,91.006 96.167,91.128 96.167 C 91.389 96.167,92.167 95.424,92.167 95.174 C 92.167 95.078,92.243 95.000,92.337 95.000 C 92.559 95.000,94.333 93.226,94.333 93.004 C 94.333 92.910,94.410 92.833,94.504 92.833 C 94.726 92.833,96.500 91.059,96.500 90.837 C 96.500 90.743,96.577 90.667,96.672 90.667 C 96.941 90.667,98.000 89.541,98.000 89.256 C 98.000 89.115,98.075 89.000,98.167 89.000 C 98.258 89.000,98.333 88.920,98.333 88.821 C 98.333 88.627,98.744 88.167,98.917 88.167 C 99.109 88.167,99.500 87.696,99.500 87.465 C 99.500 87.342,99.650 87.132,99.833 87.000 C 100.017 86.868,100.167 86.664,100.167 86.547 C 100.167 86.429,100.242 86.333,100.333 86.333 C 100.425 86.333,100.500 86.201,100.500 86.040 C 100.500 85.878,100.688 85.605,100.917 85.433 C 101.146 85.261,101.333 85.018,101.333 84.893 C 101.333 84.769,101.408 84.667,101.500 84.667 C 101.592 84.667,101.667 84.554,101.667 84.417 C 101.667 84.279,101.742 84.167,101.833 84.167 C 101.925 84.167,102.000 84.033,102.000 83.870 C 102.000 83.707,102.150 83.465,102.333 83.333 C 102.517 83.201,102.667 82.960,102.667 82.797 C 102.667 82.633,102.742 82.500,102.833 82.500 C 102.925 82.500,103.000 82.313,103.000 82.083 C 103.000 81.854,103.080 81.667,103.179 81.667 C 103.444 81.667,103.833 81.228,103.833 80.929 C 103.833 80.785,103.908 80.667,104.000 80.667 C 104.092 80.667,104.167 80.479,104.167 80.250 C 104.167 80.021,104.242 79.833,104.333 79.833 C 104.425 79.833,104.500 79.683,104.500 79.500 C 104.500 79.317,104.575 79.167,104.667 79.167 C 104.758 79.167,104.833 79.017,104.833 78.833 C 104.833 78.650,104.908 78.500,105.000 78.500 C 105.092 78.500,105.167 78.313,105.167 78.083 C 105.167 77.824,105.261 77.667,105.417 77.667 C 105.556 77.667,105.667 77.519,105.667 77.333 C 105.667 77.150,105.742 77.000,105.833 77.000 C 105.925 77.000,106.000 76.850,106.000 76.667 C 106.000 76.483,106.075 76.333,106.167 76.333 C 106.258 76.333,106.333 76.071,106.333 75.750 C 106.333 75.429,106.408 75.167,106.500 75.167 C 106.592 75.167,106.667 75.017,106.667 74.833 C 106.667 74.650,106.742 74.500,106.833 74.500 C 106.925 74.500,107.000 74.237,107.000 73.917 C 107.000 73.596,107.075 73.333,107.167 73.333 C 107.258 73.333,107.333 73.108,107.333 72.833 C 107.333 72.500,107.417 72.333,107.583 72.333 C 107.758 72.333,107.833 72.157,107.833 71.750 C 107.833 71.429,107.908 71.167,108.000 71.167 C 108.092 71.167,108.167 70.942,108.167 70.667 C 108.167 70.392,108.242 70.167,108.333 70.167 C 108.425 70.167,108.500 69.904,108.500 69.583 C 108.500 69.262,108.575 69.000,108.667 69.000 C 108.758 69.000,108.833 68.700,108.833 68.333 C 108.833 67.967,108.908 67.667,109.000 67.667 C 109.092 67.667,109.167 67.329,109.167 66.917 C 109.167 66.504,109.242 66.167,109.333 66.167 C 109.425 66.167,109.500 65.754,109.500 65.250 C 109.500 64.546,109.558 64.333,109.750 64.333 C 109.947 64.333,110.000 64.102,110.000 63.250 C 110.000 62.639,110.073 62.167,110.167 62.167 C 110.266 62.167,110.333 61.528,110.333 60.583 C 110.333 59.639,110.401 59.000,110.500 59.000 C 110.604 59.000,110.667 58.056,110.667 56.500 L 110.667 54.000 96.750 54.000 L 82.833 54.000 82.833 55.250 C 82.833 55.972,82.763 56.500,82.667 56.500 C 82.570 56.500,82.500 57.028,82.500 57.750 C 82.500 58.472,82.430 59.000,82.333 59.000 C 82.242 59.000,82.167 59.337,82.167 59.750 C 82.167 60.163,82.092 60.500,82.000 60.500 C 81.908 60.500,81.833 60.792,81.833 61.149 C 81.833 61.572,81.746 61.831,81.583 61.894 C 81.437 61.950,81.333 62.199,81.333 62.495 C 81.333 62.773,81.258 63.000,81.167 63.000 C 81.075 63.000,81.000 63.225,81.000 63.500 C 81.000 63.775,80.925 64.000,80.833 64.000 C 80.742 64.000,80.667 64.188,80.667 64.417 C 80.667 64.646,80.592 64.833,80.500 64.833 C 80.408 64.833,80.333 64.983,80.333 65.167 C 80.333 65.350,80.258 65.500,80.167 65.500 C 80.075 65.500,80.000 65.650,80.000 65.833 C 80.000 66.017,79.925 66.167,79.833 66.167 C 79.742 66.167,79.667 66.354,79.667 66.583 C 79.667 66.843,79.572 67.000,79.417 67.000 C 79.279 67.000,79.167 67.133,79.167 67.297 C 79.167 67.460,79.017 67.701,78.833 67.833 C 78.650 67.965,78.500 68.207,78.500 68.370 C 78.500 68.533,78.425 68.667,78.333 68.667 C 78.242 68.667,78.167 68.779,78.167 68.917 C 78.167 69.054,78.092 69.167,78.000 69.167 C 77.908 69.167,77.833 69.289,77.833 69.440 C 77.833 69.590,77.571 69.937,77.250 70.211 C 76.929 70.485,76.667 70.804,76.667 70.921 C 76.667 71.110,75.587 72.285,74.734 73.025 C 74.559 73.176,74.117 73.642,73.750 74.060 C 73.383 74.479,72.971 74.824,72.833 74.828 C 72.522 74.835,71.667 75.556,71.667 75.811 C 71.667 75.915,71.517 76.000,71.333 76.000 C 71.150 76.000,71.000 76.075,71.000 76.167 C 71.000 76.258,70.887 76.333,70.750 76.333 C 70.612 76.333,70.500 76.408,70.500 76.500 C 70.500 76.592,70.367 76.667,70.203 76.667 C 70.040 76.667,69.799 76.817,69.667 77.000 C 69.535 77.183,69.293 77.333,69.130 77.333 C 68.967 77.333,68.833 77.408,68.833 77.500 C 68.833 77.592,68.681 77.667,68.495 77.667 C 68.309 77.667,68.113 77.779,68.060 77.917 C 68.008 78.054,67.822 78.167,67.649 78.167 C 67.475 78.167,67.333 78.242,67.333 78.333 C 67.333 78.425,67.183 78.500,67.000 78.500 C 66.817 78.500,66.667 78.575,66.667 78.667 C 66.667 78.758,66.404 78.833,66.083 78.833 C 65.762 78.833,65.500 78.908,65.500 79.000 C 65.500 79.092,65.350 79.167,65.167 79.167 C 64.983 79.167,64.833 79.242,64.833 79.333 C 64.833 79.425,64.571 79.500,64.250 79.500 C 63.929 79.500,63.667 79.575,63.667 79.667 C 63.667 79.758,63.367 79.833,63.000 79.833 C 62.519 79.833,62.333 79.903,62.333 80.083 C 62.333 80.269,62.139 80.333,61.583 80.333 C 61.171 80.333,60.833 80.408,60.833 80.500 C 60.833 80.598,60.250 80.667,59.417 80.667 C 58.583 80.667,58.000 80.735,58.000 80.833 C 58.000 80.935,57.222 81.000,56.000 81.000 C 54.778 81.000,54.000 80.935,54.000 80.833 C 54.000 80.737,53.472 80.667,52.750 80.667 C 52.028 80.667,51.500 80.596,51.500 80.500 C 51.500 80.408,51.087 80.333,50.583 80.333 C 49.880 80.333,49.667 80.275,49.667 80.083 C 49.667 79.909,49.491 79.833,49.083 79.833 C 48.762 79.833,48.500 79.758,48.500 79.667 C 48.500 79.575,48.275 79.500,48.000 79.500 C 47.725 79.500,47.500 79.425,47.500 79.333 C 47.500 79.242,47.237 79.167,46.917 79.167 C 46.596 79.167,46.333 79.092,46.333 79.000 C 46.333 78.908,46.183 78.833,46.000 78.833 C 45.817 78.833,45.667 78.758,45.667 78.667 C 45.667 78.575,45.442 78.500,45.167 78.500 C 44.892 78.500,44.667 78.425,44.667 78.333 C 44.667 78.242,44.479 78.167,44.250 78.167 C 44.021 78.167,43.833 78.086,43.833 77.988 C 43.833 77.723,43.395 77.333,43.095 77.333 C 42.951 77.333,42.833 77.258,42.833 77.167 C 42.833 77.075,42.662 77.000,42.453 77.000 C 42.245 77.000,41.965 76.850,41.833 76.667 C 41.701 76.483,41.494 76.333,41.372 76.333 C 41.251 76.333,40.964 76.146,40.735 75.917 C 40.506 75.688,40.241 75.500,40.146 75.500 C 40.051 75.500,39.686 75.200,39.333 74.833 C 38.981 74.467,38.574 74.167,38.430 74.167 C 38.285 74.167,38.167 74.092,38.167 74.000 C 38.167 73.908,38.054 73.833,37.917 73.833 C 37.779 73.833,37.667 73.752,37.667 73.654 C 37.667 73.555,37.367 73.186,37.000 72.833 C 36.633 72.481,36.333 72.087,36.333 71.958 C 36.333 71.829,36.146 71.623,35.917 71.500 C 35.688 71.377,35.500 71.207,35.500 71.122 C 35.500 71.037,35.275 70.757,35.000 70.500 C 34.725 70.243,34.500 69.930,34.500 69.803 C 34.500 69.677,34.350 69.465,34.167 69.333 C 33.983 69.201,33.833 68.970,33.833 68.820 C 33.833 68.670,33.646 68.406,33.417 68.234 C 33.188 68.062,33.000 67.789,33.000 67.627 C 33.000 67.466,32.925 67.333,32.833 67.333 C 32.742 67.333,32.667 67.146,32.667 66.917 C 32.667 66.688,32.592 66.500,32.500 66.500 C 32.408 66.500,32.333 66.350,32.333 66.167 C 32.333 65.983,32.258 65.833,32.167 65.833 C 32.075 65.833,32.000 65.683,32.000 65.500 C 32.000 65.317,31.925 65.167,31.833 65.167 C 31.742 65.167,31.667 65.014,31.667 64.828 C 31.667 64.642,31.554 64.446,31.417 64.394 C 31.274 64.339,31.167 64.090,31.167 63.816 C 31.167 63.550,31.092 63.333,31.000 63.333 C 30.908 63.333,30.833 63.183,30.833 63.000 C 30.833 62.817,30.758 62.667,30.667 62.667 C 30.575 62.667,30.500 62.329,30.500 61.917 C 30.500 61.504,30.425 61.167,30.333 61.167 C 30.242 61.167,30.167 60.829,30.167 60.417 C 30.167 60.004,30.092 59.667,30.000 59.667 C 29.908 59.667,29.833 59.307,29.833 58.867 C 29.833 58.427,29.761 57.995,29.673 57.907 C 29.586 57.819,29.492 57.035,29.465 56.165 L 29.417 54.583 15.917 54.500 C 5.349 54.435,2.335 54.370,2.042 54.202 L 1.667 53.988 1.667 57.411 M164.500 65.667 C 164.500 73.333,164.557 77.333,164.667 77.333 C 164.765 77.333,164.833 77.944,164.833 78.833 C 164.833 79.722,164.901 80.333,165.000 80.333 C 165.092 80.333,165.167 80.633,165.167 81.000 C 165.167 81.367,165.242 81.667,165.333 81.667 C 165.425 81.667,165.500 81.929,165.500 82.250 C 165.500 82.571,165.575 82.833,165.667 82.833 C 165.758 82.833,165.833 82.949,165.833 83.090 C 165.833 83.331,165.940 83.499,166.458 84.077 C 166.573 84.205,166.667 84.390,166.667 84.488 C 166.667 84.586,166.742 84.667,166.833 84.667 C 166.925 84.667,167.000 84.782,167.000 84.922 C 167.000 85.296,168.099 86.333,168.494 86.333 C 168.681 86.333,168.833 86.414,168.833 86.512 C 168.833 86.777,169.272 87.167,169.571 87.167 C 169.715 87.167,169.833 87.242,169.833 87.333 C 169.833 87.425,170.021 87.500,170.250 87.500 C 170.479 87.500,170.667 87.575,170.667 87.667 C 170.667 87.758,170.892 87.833,171.167 87.833 C 171.442 87.833,171.667 87.908,171.667 88.000 C 171.667 88.092,172.079 88.167,172.583 88.167 C 173.088 88.167,173.500 88.242,173.500 88.333 C 173.500 88.434,174.194 88.500,175.250 88.500 C 176.306 88.500,177.000 88.434,177.000 88.333 C 177.000 88.239,177.472 88.167,178.083 88.167 C 178.694 88.167,179.167 88.094,179.167 88.000 C 179.167 87.908,179.429 87.833,179.750 87.833 C 180.071 87.833,180.333 87.758,180.333 87.667 C 180.333 87.575,180.483 87.500,180.667 87.500 C 180.850 87.500,181.000 87.425,181.000 87.333 C 181.000 87.242,181.150 87.167,181.333 87.167 C 181.517 87.167,181.667 87.092,181.667 87.000 C 181.667 86.908,181.779 86.833,181.917 86.833 C 182.054 86.833,182.167 86.721,182.167 86.583 C 182.167 86.446,182.300 86.333,182.463 86.333 C 182.626 86.333,182.868 86.183,183.000 86.000 C 183.132 85.817,183.363 85.667,183.512 85.667 C 183.662 85.667,184.019 85.442,184.307 85.167 C 185.011 84.494,185.000 84.481,185.000 86.012 C 185.000 86.956,185.071 87.428,185.238 87.595 C 185.517 87.874,187.752 87.934,187.917 87.667 C 187.981 87.563,189.557 87.500,192.093 87.500 L 196.167 87.500 196.167 79.510 C 196.167 74.363,196.226 71.483,196.333 71.417 C 196.425 71.360,196.500 70.948,196.500 70.500 C 196.500 70.052,196.575 69.640,196.667 69.583 C 196.849 69.470,196.901 66.956,196.724 66.779 C 196.663 66.719,196.513 66.753,196.390 66.855 C 196.204 67.010,196.167 65.956,196.167 60.520 L 196.167 54.000 190.583 54.000 L 185.000 54.000 185.000 65.595 C 185.000 77.739,185.018 77.438,184.292 77.712 C 184.131 77.773,184.000 77.900,184.000 77.995 C 184.000 78.089,183.813 78.167,183.583 78.167 C 183.354 78.167,183.167 78.242,183.167 78.333 C 183.167 78.425,183.017 78.500,182.833 78.500 C 182.650 78.500,182.500 78.575,182.500 78.667 C 182.500 78.758,182.162 78.833,181.750 78.833 C 181.338 78.833,181.000 78.908,181.000 79.000 C 181.000 79.094,180.528 79.167,179.917 79.167 C 179.306 79.167,178.833 79.094,178.833 79.000 C 178.833 78.908,178.640 78.833,178.405 78.833 C 178.169 78.833,177.881 78.740,177.766 78.625 C 177.650 78.510,177.355 78.268,177.111 78.085 C 176.867 77.903,176.667 77.660,176.667 77.544 C 176.667 77.428,176.592 77.333,176.500 77.333 C 176.408 77.333,176.333 77.183,176.333 77.000 C 176.333 76.817,176.258 76.667,176.167 76.667 C 176.075 76.667,176.000 76.329,176.000 75.917 C 176.000 75.504,175.925 75.167,175.833 75.167 C 175.724 75.167,175.667 71.528,175.667 64.583 L 175.667 54.000 170.083 54.000 L 164.500 54.000 164.500 65.667 M203.500 70.750 L 203.500 87.500 208.917 87.500 L 214.333 87.500 214.333 76.500 C 214.333 65.611,214.337 65.500,214.667 65.500 C 214.850 65.500,215.000 65.425,215.000 65.333 C 215.000 65.242,215.225 65.167,215.500 65.167 C 215.775 65.167,216.000 65.092,216.000 65.000 C 216.000 64.908,216.302 64.833,216.672 64.833 C 217.115 64.833,217.376 64.748,217.440 64.583 C 217.505 64.414,217.771 64.333,218.268 64.333 C 218.671 64.333,219.000 64.258,219.000 64.167 C 219.000 64.063,219.889 64.000,221.333 64.000 C 222.778 64.000,223.667 64.063,223.667 64.167 C 223.667 64.263,224.194 64.333,224.917 64.333 L 226.167 64.333 226.167 59.167 L 226.167 54.000 223.667 54.000 C 222.111 54.000,221.167 54.063,221.167 54.167 C 221.167 54.258,220.904 54.333,220.583 54.333 C 220.262 54.333,220.000 54.408,220.000 54.500 C 220.000 54.592,219.775 54.667,219.500 54.667 C 219.225 54.667,219.000 54.742,219.000 54.833 C 219.000 54.925,218.864 55.000,218.698 55.000 C 218.532 55.000,218.235 55.150,218.038 55.333 C 217.842 55.517,217.565 55.667,217.424 55.667 C 217.282 55.667,217.167 55.779,217.167 55.917 C 217.167 56.056,217.019 56.167,216.833 56.167 C 216.650 56.167,216.500 56.242,216.500 56.333 C 216.500 56.425,216.418 56.500,216.317 56.500 C 216.216 56.500,215.914 56.735,215.645 57.023 C 215.377 57.310,215.103 57.492,215.038 57.427 C 214.973 57.362,215.050 57.235,215.210 57.146 C 215.762 56.837,215.571 56.355,214.917 56.407 L 214.333 56.454 214.333 55.227 L 214.333 54.000 208.917 54.000 L 203.500 54.000 203.500 70.750 M135.412 77.008 C 135.266 77.243,135.810 78.367,136.010 78.244 C 136.301 78.064,136.184 77.187,135.843 77.005 C 135.619 76.885,135.487 76.886,135.412 77.008 M241.875 77.287 C 241.640 77.371,241.585 78.500,241.815 78.500 C 241.897 78.500,241.999 78.219,242.041 77.875 C 242.132 77.151,242.143 77.191,241.875 77.287 " stroke="none" fill="#fcfcfc" fill-rule="evenodd"></path><path id="path2" d="M48.125 0.124 C 47.415 0.155,46.833 0.253,46.833 0.340 C 46.833 0.428,46.421 0.500,45.917 0.500 C 45.413 0.500,45.000 0.575,45.000 0.667 C 45.000 0.758,44.587 0.833,44.083 0.833 C 43.380 0.833,43.167 0.891,43.167 1.083 C 43.167 1.269,42.972 1.333,42.417 1.333 C 42.004 1.333,41.667 1.408,41.667 1.500 C 41.667 1.592,41.442 1.667,41.167 1.667 C 40.892 1.667,40.667 1.742,40.667 1.833 C 40.667 1.925,40.329 2.000,39.917 2.000 C 39.504 2.000,39.167 2.075,39.167 2.167 C 39.167 2.258,38.942 2.333,38.667 2.333 C 38.392 2.333,38.167 2.408,38.167 2.500 C 38.167 2.592,37.979 2.667,37.750 2.667 C 37.521 2.667,37.333 2.742,37.333 2.833 C 37.333 2.925,37.108 3.000,36.833 3.000 C 36.500 3.000,36.333 3.083,36.333 3.250 C 36.333 3.425,36.157 3.500,35.750 3.500 C 35.429 3.500,35.167 3.575,35.167 3.667 C 35.167 3.758,35.017 3.833,34.833 3.833 C 34.650 3.833,34.500 3.908,34.500 4.000 C 34.500 4.092,34.350 4.167,34.167 4.167 C 33.983 4.167,33.833 4.242,33.833 4.333 C 33.833 4.425,33.571 4.500,33.250 4.500 C 32.929 4.500,32.667 4.575,32.667 4.667 C 32.667 4.758,32.517 4.833,32.333 4.833 C 32.150 4.833,32.000 4.908,32.000 5.000 C 32.000 5.092,31.848 5.167,31.661 5.167 C 31.475 5.167,31.280 5.279,31.227 5.417 C 31.174 5.554,30.989 5.667,30.816 5.667 C 30.642 5.667,30.500 5.742,30.500 5.833 C 30.500 5.925,30.367 6.000,30.203 6.000 C 30.040 6.000,29.799 6.150,29.667 6.333 C 29.535 6.517,29.255 6.667,29.047 6.667 C 28.838 6.667,28.667 6.742,28.667 6.833 C 28.667 6.925,28.517 7.000,28.333 7.000 C 28.150 7.000,28.000 7.075,28.000 7.167 C 28.000 7.258,27.850 7.333,27.667 7.333 C 27.481 7.333,27.333 7.444,27.333 7.583 C 27.333 7.721,27.221 7.833,27.083 7.833 C 26.946 7.833,26.833 7.908,26.833 8.000 C 26.833 8.092,26.700 8.167,26.537 8.167 C 26.374 8.167,26.132 8.317,26.000 8.500 C 25.868 8.683,25.626 8.833,25.463 8.833 C 25.300 8.833,25.167 8.908,25.167 9.000 C 25.167 9.092,25.054 9.167,24.917 9.167 C 24.779 9.167,24.667 9.242,24.667 9.333 C 24.667 9.425,24.517 9.500,24.333 9.500 C 24.150 9.500,24.000 9.578,24.000 9.674 C 24.000 9.944,23.213 10.667,22.919 10.667 C 22.628 10.667,21.500 11.722,21.500 11.994 C 21.500 12.089,21.350 12.167,21.167 12.167 C 20.983 12.167,20.833 12.242,20.833 12.333 C 20.833 12.425,20.756 12.500,20.662 12.500 C 20.483 12.500,19.000 13.919,19.000 14.091 C 19.000 14.241,18.544 14.667,18.382 14.667 C 18.304 14.667,18.132 14.817,18.000 15.000 C 17.868 15.183,17.626 15.333,17.463 15.333 C 17.290 15.333,17.167 15.457,17.167 15.630 C 17.167 15.793,17.017 16.035,16.833 16.167 C 16.650 16.299,16.500 16.503,16.500 16.620 C 16.500 16.737,16.423 16.833,16.330 16.833 C 16.108 16.833,14.333 18.608,14.333 18.830 C 14.333 18.923,14.221 19.000,14.083 19.000 C 13.946 19.000,13.833 19.112,13.833 19.250 C 13.833 19.387,13.533 19.809,13.167 20.187 C 12.800 20.564,12.500 20.982,12.500 21.115 C 12.500 21.359,12.115 21.833,11.917 21.833 C 11.711 21.833,11.333 22.311,11.333 22.571 C 11.333 22.715,11.258 22.833,11.167 22.833 C 11.075 22.833,11.000 22.946,11.000 23.083 C 11.000 23.221,10.925 23.333,10.833 23.333 C 10.742 23.333,10.667 23.467,10.667 23.630 C 10.667 23.793,10.517 24.035,10.333 24.167 C 10.150 24.299,10.000 24.506,10.000 24.628 C 10.000 24.750,9.813 25.023,9.583 25.235 C 9.354 25.448,9.167 25.744,9.167 25.894 C 9.167 26.044,9.092 26.167,9.000 26.167 C 8.908 26.167,8.833 26.317,8.833 26.500 C 8.833 26.683,8.758 26.833,8.667 26.833 C 8.575 26.833,8.500 27.004,8.500 27.213 C 8.500 27.422,8.350 27.701,8.167 27.833 C 7.983 27.965,7.833 28.207,7.833 28.370 C 7.833 28.533,7.721 28.667,7.583 28.667 C 7.446 28.667,7.333 28.812,7.333 28.990 C 7.333 29.168,7.258 29.360,7.167 29.417 C 7.075 29.473,7.000 29.665,7.000 29.843 C 7.000 30.021,6.925 30.167,6.833 30.167 C 6.742 30.167,6.667 30.317,6.667 30.500 C 6.667 30.683,6.592 30.833,6.500 30.833 C 6.408 30.833,6.333 31.096,6.333 31.417 C 6.333 31.738,6.258 32.000,6.167 32.000 C 6.075 32.000,6.000 32.150,6.000 32.333 C 6.000 32.517,5.925 32.667,5.833 32.667 C 5.742 32.667,5.667 32.809,5.667 32.982 C 5.667 33.156,5.554 33.341,5.417 33.394 C 5.271 33.450,5.167 33.699,5.167 33.995 C 5.167 34.273,5.092 34.500,5.000 34.500 C 4.908 34.500,4.833 34.650,4.833 34.833 C 4.833 35.017,4.758 35.167,4.667 35.167 C 4.575 35.167,4.500 35.429,4.500 35.750 C 4.500 36.071,4.425 36.333,4.333 36.333 C 4.242 36.333,4.167 36.558,4.167 36.833 C 4.167 37.108,4.092 37.333,4.000 37.333 C 3.908 37.333,3.833 37.671,3.833 38.083 C 3.833 38.496,3.758 38.833,3.667 38.833 C 3.575 38.833,3.500 39.050,3.500 39.316 C 3.500 39.590,3.393 39.839,3.250 39.894 C 3.085 39.957,3.000 40.218,3.000 40.661 C 3.000 41.031,2.925 41.333,2.833 41.333 C 2.742 41.333,2.667 41.746,2.667 42.250 C 2.667 42.754,2.592 43.167,2.500 43.167 C 2.408 43.167,2.333 43.579,2.333 44.083 C 2.333 44.587,2.258 45.000,2.167 45.000 C 1.883 45.000,1.962 46.783,2.250 46.894 C 2.461 46.975,2.500 47.523,2.500 50.411 L 2.500 53.833 16.000 53.833 L 29.500 53.833 29.500 52.083 C 29.500 51.028,29.566 50.333,29.667 50.333 C 29.758 50.333,29.833 49.921,29.833 49.417 C 29.833 48.913,29.908 48.500,30.000 48.500 C 30.092 48.500,30.167 48.163,30.167 47.750 C 30.167 47.337,30.242 47.000,30.333 47.000 C 30.425 47.000,30.500 46.775,30.500 46.500 C 30.500 46.225,30.575 46.000,30.667 46.000 C 30.758 46.000,30.833 45.737,30.833 45.417 C 30.833 45.096,30.908 44.833,31.000 44.833 C 31.092 44.833,31.167 44.683,31.167 44.500 C 31.167 44.315,31.278 44.167,31.417 44.167 C 31.583 44.167,31.667 44.000,31.667 43.667 C 31.667 43.392,31.742 43.167,31.833 43.167 C 31.925 43.167,32.000 42.979,32.000 42.750 C 32.000 42.521,32.075 42.333,32.167 42.333 C 32.258 42.333,32.333 42.183,32.333 42.000 C 32.333 41.817,32.408 41.667,32.500 41.667 C 32.592 41.667,32.667 41.533,32.667 41.370 C 32.667 41.207,32.817 40.965,33.000 40.833 C 33.183 40.701,33.333 40.422,33.333 40.213 C 33.333 40.004,33.414 39.833,33.512 39.833 C 33.763 39.833,34.167 39.401,34.167 39.132 C 34.167 39.008,34.317 38.799,34.500 38.667 C 34.683 38.535,34.833 38.330,34.833 38.213 C 34.833 38.096,34.908 38.000,35.000 38.000 C 35.092 38.000,35.167 37.882,35.167 37.738 C 35.167 37.481,35.544 37.000,35.746 37.000 C 35.876 37.000,36.667 36.215,36.667 36.085 C 36.667 35.960,37.793 34.833,37.919 34.833 C 38.048 34.833,38.833 34.043,38.833 33.912 C 38.833 33.710,39.314 33.333,39.571 33.333 C 39.715 33.333,39.833 33.258,39.833 33.167 C 39.833 33.075,39.929 33.000,40.047 33.000 C 40.164 33.000,40.368 32.850,40.500 32.667 C 40.632 32.483,40.842 32.333,40.965 32.333 C 41.234 32.333,41.667 31.930,41.667 31.679 C 41.667 31.580,41.838 31.500,42.047 31.500 C 42.255 31.500,42.535 31.350,42.667 31.167 C 42.799 30.983,43.040 30.833,43.203 30.833 C 43.367 30.833,43.500 30.758,43.500 30.667 C 43.500 30.575,43.650 30.500,43.833 30.500 C 44.017 30.500,44.167 30.425,44.167 30.333 C 44.167 30.242,44.354 30.167,44.583 30.167 C 44.813 30.167,45.000 30.092,45.000 30.000 C 45.000 29.908,45.225 29.833,45.500 29.833 C 45.833 29.833,46.000 29.750,46.000 29.583 C 46.000 29.428,46.157 29.333,46.417 29.333 C 46.646 29.333,46.833 29.258,46.833 29.167 C 46.833 29.075,47.058 29.000,47.333 29.000 C 47.608 29.000,47.833 28.925,47.833 28.833 C 47.833 28.742,48.096 28.667,48.417 28.667 C 48.737 28.667,49.000 28.592,49.000 28.500 C 49.000 28.408,49.300 28.333,49.667 28.333 C 50.033 28.333,50.333 28.258,50.333 28.167 C 50.333 28.075,50.746 28.000,51.250 28.000 C 51.754 28.000,52.167 27.925,52.167 27.833 C 52.167 27.731,53.000 27.667,54.333 27.667 L 56.500 27.667 56.500 13.833 L 56.500 0.000 52.958 0.034 C 51.010 0.052,48.835 0.093,48.125 0.124 M280.044 52.953 C 280.297 52.991,280.672 52.990,280.877 52.951 C 281.082 52.911,280.875 52.880,280.417 52.881 C 279.958 52.882,279.791 52.915,280.044 52.953 M282.958 52.951 C 283.165 52.991,283.502 52.991,283.708 52.951 C 283.915 52.911,283.746 52.879,283.333 52.879 C 282.921 52.879,282.752 52.911,282.958 52.951 M286.181 52.894 C 286.338 53.033,287.820 53.114,287.737 52.979 C 287.688 52.899,287.301 52.833,286.879 52.833 C 286.457 52.833,286.142 52.861,286.181 52.894 M326.000 53.001 C 326.000 53.108,326.354 53.130,326.958 53.062 C 328.247 52.917,328.272 52.833,327.028 52.833 C 326.448 52.833,326.000 52.907,326.000 53.001 M329.083 53.000 C 329.140 53.092,329.351 53.166,329.552 53.164 C 329.848 53.162,329.870 53.131,329.667 53.000 C 329.338 52.788,328.952 52.788,329.083 53.000 M312.761 53.375 C 312.893 53.797,313.131 53.996,313.500 53.992 C 313.703 53.990,313.696 53.948,313.461 53.770 C 313.302 53.649,313.220 53.502,313.279 53.443 C 313.338 53.384,313.484 53.418,313.604 53.517 C 313.724 53.617,313.916 53.667,314.030 53.629 C 314.261 53.552,313.252 53.000,312.880 53.000 C 312.712 53.000,312.678 53.108,312.761 53.375 M277.083 53.333 L 276.417 53.453 277.032 53.476 C 277.370 53.489,277.693 53.425,277.750 53.333 C 277.807 53.242,277.830 53.177,277.802 53.190 C 277.773 53.203,277.450 53.268,277.083 53.333 M314.420 53.839 C 314.475 53.928,315.015 54.000,315.621 54.000 C 316.997 54.000,316.928 53.911,315.452 53.779 C 314.741 53.716,314.358 53.738,314.420 53.839 M38.833 55.667 C 38.833 56.778,38.899 57.500,39.000 57.500 C 39.092 57.500,39.167 57.837,39.167 58.250 C 39.167 58.663,39.242 59.000,39.333 59.000 C 39.425 59.000,39.500 59.225,39.500 59.500 C 39.500 59.775,39.575 60.000,39.667 60.000 C 39.758 60.000,39.833 60.262,39.833 60.583 C 39.833 60.991,39.909 61.167,40.083 61.167 C 40.222 61.167,40.333 61.315,40.333 61.500 C 40.333 61.683,40.408 61.833,40.500 61.833 C 40.592 61.833,40.667 62.021,40.667 62.250 C 40.667 62.479,40.742 62.667,40.833 62.667 C 40.925 62.667,41.000 62.800,41.000 62.963 C 41.000 63.126,41.150 63.368,41.333 63.500 C 41.517 63.632,41.667 63.846,41.667 63.976 C 41.667 64.106,41.854 64.386,42.083 64.598 C 42.313 64.810,42.500 65.069,42.500 65.172 C 42.500 65.275,42.800 65.648,43.167 66.000 C 43.533 66.352,43.833 66.689,43.833 66.749 C 43.833 66.923,44.293 67.333,44.488 67.333 C 44.586 67.333,44.667 67.408,44.667 67.500 C 44.667 67.592,44.787 67.667,44.933 67.667 C 45.080 67.667,45.410 67.892,45.667 68.167 C 45.924 68.442,46.291 68.667,46.484 68.667 C 46.676 68.667,46.833 68.742,46.833 68.833 C 46.833 68.925,46.983 69.000,47.167 69.000 C 47.350 69.000,47.500 69.080,47.500 69.179 C 47.500 69.444,47.939 69.833,48.238 69.833 C 48.382 69.833,48.500 69.908,48.500 70.000 C 48.500 70.092,48.762 70.167,49.083 70.167 C 49.404 70.167,49.667 70.242,49.667 70.333 C 49.667 70.425,49.892 70.500,50.167 70.500 C 50.442 70.500,50.667 70.575,50.667 70.667 C 50.667 70.758,50.929 70.833,51.250 70.833 C 51.571 70.833,51.833 70.908,51.833 71.000 C 51.833 71.096,52.361 71.167,53.083 71.167 C 54.083 71.167,54.333 71.217,54.333 71.417 C 54.333 71.621,54.620 71.667,55.917 71.667 C 57.213 71.667,57.500 71.621,57.500 71.417 C 57.500 71.215,57.759 71.167,58.833 71.167 C 59.611 71.167,60.167 71.097,60.167 71.000 C 60.167 70.908,60.467 70.833,60.833 70.833 C 61.200 70.833,61.500 70.758,61.500 70.667 C 61.500 70.575,61.762 70.500,62.083 70.500 C 62.404 70.500,62.667 70.425,62.667 70.333 C 62.667 70.242,62.817 70.167,63.000 70.167 C 63.183 70.167,63.333 70.092,63.333 70.000 C 63.333 69.908,63.483 69.833,63.667 69.833 C 63.850 69.833,64.000 69.758,64.000 69.667 C 64.000 69.575,64.188 69.500,64.417 69.500 C 64.676 69.500,64.833 69.406,64.833 69.250 C 64.833 69.112,64.967 69.000,65.130 69.000 C 65.293 69.000,65.535 68.850,65.667 68.667 C 65.799 68.483,66.042 68.333,66.208 68.333 C 66.479 68.333,68.000 66.983,68.000 66.742 C 68.000 66.613,68.446 66.167,68.576 66.167 C 68.799 66.167,70.167 64.656,70.167 64.409 C 70.167 64.106,70.554 63.667,70.821 63.667 C 70.920 63.667,71.000 63.517,71.000 63.333 C 71.000 63.150,71.075 63.000,71.167 63.000 C 71.258 63.000,71.333 62.813,71.333 62.583 C 71.333 62.354,71.408 62.167,71.500 62.167 C 71.592 62.167,71.667 62.017,71.667 61.833 C 71.667 61.650,71.742 61.500,71.833 61.500 C 71.925 61.500,72.000 61.350,72.000 61.167 C 72.000 60.983,72.075 60.833,72.167 60.833 C 72.258 60.833,72.333 60.571,72.333 60.250 C 72.333 59.929,72.408 59.667,72.500 59.667 C 72.592 59.667,72.667 59.375,72.667 59.018 C 72.667 58.595,72.754 58.336,72.917 58.273 C 73.101 58.202,73.167 57.912,73.167 57.172 C 73.167 56.613,73.241 56.167,73.333 56.167 C 73.425 56.167,73.500 55.731,73.500 55.193 L 73.500 54.219 70.625 54.096 C 69.044 54.028,61.244 53.942,53.292 53.903 L 38.833 53.833 38.833 55.667 M317.500 54.740 C 317.500 55.158,317.575 55.500,317.667 55.500 C 317.758 55.500,317.833 55.204,317.833 54.843 C 317.833 54.482,317.758 54.140,317.667 54.083 C 317.565 54.020,317.500 54.276,317.500 54.740 M356.238 54.575 C 356.245 54.882,356.306 55.099,356.375 55.057 C 356.544 54.953,356.534 54.208,356.363 54.102 C 356.287 54.055,356.231 54.268,356.238 54.575 M279.550 77.000 C 279.550 77.504,279.581 77.710,279.619 77.458 C 279.658 77.206,279.658 76.794,279.619 76.542 C 279.581 76.290,279.550 76.496,279.550 77.000 " stroke="none" fill="#04dcf4" fill-rule="evenodd"></path><path id="path3" d="M1.667 52.577 C 1.667 53.866,1.699 54.007,2.042 54.202 C 2.461 54.442,29.500 54.694,29.500 54.458 C 29.500 54.390,23.505 54.333,16.178 54.333 C 7.925 54.333,2.692 54.271,2.428 54.171 C 2.015 54.014,2.000 53.959,2.000 52.587 C 2.000 51.751,1.931 51.167,1.833 51.167 C 1.735 51.167,1.667 51.748,1.667 52.577 " stroke="none" fill="#cef6fc" fill-rule="evenodd"></path><path id="path4" d="M1.792 47.596 C 1.599 47.790,1.639 51.167,1.833 51.167 C 1.931 51.167,2.000 51.751,2.000 52.587 C 2.000 54.499,0.677 54.340,16.136 54.294 L 29.417 54.254 16.000 54.169 C 8.621 54.122,2.490 54.023,2.375 53.948 C 2.225 53.851,2.163 53.129,2.154 51.365 C 2.141 48.808,2.004 47.382,1.792 47.596 M38.833 53.481 C 38.833 53.562,39.002 53.672,39.208 53.727 C 39.664 53.848,73.344 53.878,73.464 53.758 C 73.511 53.711,65.873 53.671,56.490 53.668 C 45.448 53.665,39.372 53.605,39.265 53.499 C 39.060 53.294,38.833 53.284,38.833 53.481 " stroke="none" fill="#b4f4fc" fill-rule="evenodd"></path></g></svg>